<?xml version="1.0" encoding="UTF-8"?>
<svg width="1200pt" height="1200pt" version="1.1" viewBox="0 0 1200 1200" xmlns="http://www.w3.org/2000/svg">
 <path d="m1023.6 195.6c-21.637-29.16-123.86-156.49-321.38-34.176-197.5 122.32-117.82 251.47-130.14 272.88-12.324 21.422-9.1445 23.461-9.1445 23.461l61.246 95.734-35.93 60.059-233.43-114.55s-15.887-30.672-22.656-54.695c-2.6523-9.4219 5.6289-13.57 2.4727-20.855-3.4336-7.8945-11.496-10.32-13.969-12.551-10.559-9.5508-57.445 36.504-76.43 72.875-6.1445 11.762-20.281 68.855-11.281 84.312 13.848 23.762 36.48-5.543 36.48-5.543l62.605-13.379 435.29 219.14s2.8789 44.461 45.289 36.938c41.93-7.4531 93.938-48.996 149.65-82.43 81.695-49.008 156.74-102.84 167.61-117.8 18.145-24.949-26.965-58.355-26.965-58.355s-8.1484-4.0547-2.8789-85.621c9.8516-153.18-54.828-236.28-76.438-265.44zm-20.199 196.28c-69.18-105-92.125-162.47-107.69-157.46-25.273 5.3047-198.46 127-198.46 127l-74.965 6.4453s-14.746-1.4297-13.008-20.34c1.7383-18.91 13.164-98.375 141.11-159.49 127.95-61.105 219.23-1.8945 247.29 40.441 28.078 42.336 47.195 106.2 49.895 135.13 2.6914 28.93 24.984 133.27-44.172 28.281z"/>
 <path d="m122.77 517.32c-1.8008-1.5234-26.652-2.4727-30.816 1.6328-4.1758 4.1055-2.0625 15.422 6.2539 15.961 8.3125 0.53906 26.375-16.082 24.562-17.594zm-28.812 5.5312s-2.0898-0.60156 0.70703-2.4727c2.5781-1.7383 10.703-1.3203 10.703-1.3203s0.52734-0.046875-3.5156 2.0039c-4.043 2.0547-7.8945 1.7891-7.8945 1.7891z"/>
 <path d="m133.04 485.07c-0.81641-2.2188-22.008-15.227-27.672-13.691-5.6523 1.5234-9.3594 12.434-2.375 16.98s30.875-1.0781 30.047-3.2891zm-27.828-9.2969s-1.5117-1.5469 1.8242-1.8125c3.1094-0.23828 9.9727 4.1055 9.9727 4.1055s0.49219 0.21484-4.0312 0.011719c-4.5352-0.20703-7.7656-2.3047-7.7656-2.3047z"/>
 <path d="m184.43 437.32c-0.81641-2.2188-22.008-15.227-27.672-13.691-5.6523 1.5234-9.3594 12.434-2.375 16.98 6.9805 4.5352 30.875-1.082 30.047-3.2891zm-27.828-9.3008s-1.5117-1.5469 1.8242-1.8125c3.1094-0.23828 9.9727 4.1055 9.9727 4.1055s0.49219 0.21484-4.0312 0.011718c-4.5391-0.20312-7.7656-2.3047-7.7656-2.3047z"/>
 <path d="m255.45 429.91c-0.30078-2.3398-18.07-19.738-23.93-19.5-5.8438 0.23828-11.879 10.031-6.0977 16.02 5.8086 5.9922 30.352 5.8242 30.027 3.4805zm-25.059-15.25s-1.1289-1.8477 2.1836-1.3555c3.0859 0.45703 8.8086 6.2148 8.8086 6.2148s0.43359 0.3125-3.9375-0.875c-4.3672-1.2227-7.0547-3.9844-7.0547-3.9844z"/>
 <path d="m189.68 507.28c-1.2852-1.9805-24.793-10.066-29.988-7.3555-5.1836 2.7109-6.4336 14.16 1.3672 17.09 7.8008 2.9258 29.906-7.7539 28.621-9.7344zm-29.195-3.0234s-1.8125-1.1875 1.3789-2.1602c2.9883-0.91016 10.621 1.8359 10.621 1.8359s0.51562 0.097656-3.9375 0.88672c-4.4492 0.78125-8.0625-0.5625-8.0625-0.5625z"/>
 <path d="m223.43 475.15c-0.64844-2.2695-20.746-16.906-26.496-15.84-5.7461 1.0664-10.309 11.652-3.7188 16.738 6.5977 5.0781 30.859 1.3711 30.215-0.89844zm-27.016-11.473s-1.3906-1.668 1.957-1.668c3.1211 0.011719 9.6133 4.8828 9.6133 4.8828s0.46875 0.25391-4.0195-0.30078c-4.5-0.57422-7.5508-2.9141-7.5508-2.9141z"/>
 <path d="m143.28 557.39c-2.0391-1.1992-26.676 2.1484-30.086 6.9102-3.4062 4.7539 0.625 15.539 8.8906 14.652 8.293-0.91016 23.234-20.387 21.195-21.562zm-27.434 10.406s-2.1602-0.23828 0.26562-2.543c2.2578-2.1602 10.309-3.1445 10.309-3.1445s0.50391-0.14453-3.1211 2.5664c-3.6133 2.7109-7.4531 3.1211-7.4531 3.1211z"/>
 <path d="m114.74 607.73c-2.0391-1.1992-26.676 2.1484-30.086 6.9102-3.4062 4.7539 0.625 15.539 8.8906 14.652 8.2969-0.91016 23.238-20.375 21.195-21.562zm-27.43 10.406s-2.1602-0.23828 0.26562-2.5547c2.2578-2.1602 10.309-3.1445 10.309-3.1445s0.50391-0.14453-3.1211 2.5781c-3.6133 2.7109-7.4531 3.1211-7.4531 3.1211z"/>
 <path d="m125.82 646.97c-2.2188-0.81641-25.883 6.793-28.402 12.086-2.5195 5.2695 3.3359 15.191 11.328 12.852 7.9883-2.3672 19.293-24.145 17.074-24.938zm-25.188 15.047s-2.1719 0.15625-0.17969-2.5547c1.8359-2.5195 9.6016-4.8945 9.6016-4.8945s0.48047-0.23828-2.6172 3.0859c-3.0977 3.2852-6.8047 4.3633-6.8047 4.3633z"/>
 <path d="m201.94 555.72c-2.1836-0.875-26.051 6.1094-28.715 11.316-2.6641 5.2188 2.9297 15.277 10.98 13.164 8.0625-2.1367 19.93-23.613 17.734-24.48zm-25.574 14.379s-2.1719 0.085938-0.10938-2.5547c1.8945-2.4727 9.7305-4.6445 9.7305-4.6445s0.49219-0.21484-2.6992 3c-3.1875 3.2266-6.9219 4.1992-6.9219 4.1992z"/>
 <path d="m214.41 600.01c-2.3398-0.27734-23.605 12.625-24.828 18.324-1.2344 5.7344 6.7695 14.016 14.004 9.8867 7.2383-4.125 13.18-27.945 10.824-28.211zm-21 20.484s-2.0742 0.64844-0.76953-2.4492c1.1992-2.8555 8.207-6.9961 8.207-6.9961s0.42188-0.33594-1.8359 3.6016c-2.25 3.9375-5.6016 5.8438-5.6016 5.8438z"/>
 <path d="m232.85 626.03c-2.1367 0.98438-13.488 23.125-11.531 28.621 1.957 5.5312 13.117 8.3867 17.113 1.0938 3.9961-7.3203-3.4453-30.723-5.582-29.715zm-7.1523 28.453s-1.4297 1.6445-1.9453-1.6797c-0.48047-3.0703 3.3125-10.262 3.3125-10.262s0.17969-0.49219 0.33594 4.043c0.15625 4.5156-1.7031 7.8984-1.7031 7.8984z"/>
 <path d="m162.2 600.01c-2.3398-0.27734-23.605 12.625-24.828 18.324-1.2344 5.7344 6.7695 14.016 14.004 9.8867 7.2383-4.125 13.176-27.945 10.824-28.211zm-21 20.484s-2.0742 0.64844-0.76953-2.4492c1.1992-2.8555 8.207-6.9961 8.207-6.9961s0.42188-0.33594-1.8359 3.6016c-2.2539 3.9375-5.6016 5.8438-5.6016 5.8438z"/>
 <path d="m180.2 648.55c-2.3164 0.44531-18.66 19.199-18.086 24.996 0.5625 5.832 10.703 11.305 16.344 5.1836 5.6445-6.1289 4.0586-30.633 1.7422-30.18zm-13.789 25.91s-1.7773 1.2461-1.4883-2.1133c0.27734-3.0859 5.6992-9.1445 5.6992-9.1445s0.28906-0.44531-0.66016 3.9844c-0.93359 4.4297-3.5508 7.2734-3.5508 7.2734z"/>
</svg>
